<?xml version="1.0" standalone="no"?>
<!DOCTYPE svg PUBLIC "-//W3C//DTD SVG 20010904//EN"
 "http://www.w3.org/TR/2001/REC-SVG-20010904/DTD/svg10.dtd">
<svg version="1.0" xmlns="http://www.w3.org/2000/svg"
 width="514.000000pt" height="514.000000pt" viewBox="0 0 514.000000 514.000000"
 preserveAspectRatio="xMidYMid meet">
<metadata>
Created by potrace 1.14, written by Peter Selinger 2001-2017
</metadata>
<g transform="translate(0.000000,514.000000) scale(0.100000,-0.100000)"
fill="#000000" stroke="none">
<path d="M2429 5016 c-2 -2 -31 -7 -64 -11 -114 -13 -315 -68 -380 -105 -18
-10 -36 -16 -39 -13 -3 3 -11 1 -18 -4 -7 -6 -44 -28 -83 -48 -244 -132 -461
-340 -598 -570 -24 -41 -99 -195 -113 -231 -56 -146 -86 -271 -99 -414 -6 -62
-6 -244 1 -310 3 -30 6 -67 7 -82 1 -16 4 -28 7 -28 3 0 6 -12 7 -27 3 -55 61
-249 91 -308 9 -16 17 -34 18 -40 1 -5 30 -68 64 -140 35 -71 63 -136 63 -142
0 -7 4 -13 9 -13 4 0 8 -4 8 -9 0 -8 35 -88 105 -236 13 -27 33 -72 45 -100
12 -27 41 -90 65 -140 23 -49 52 -112 65 -140 28 -62 68 -148 111 -240 18 -38
33 -72 34 -75 0 -3 14 -32 29 -65 15 -33 51 -109 78 -170 28 -60 72 -157 99
-214 27 -57 49 -105 49 -107 0 -2 25 -56 55 -119 30 -64 55 -118 55 -120 0 -1
22 -49 49 -106 26 -57 61 -131 76 -164 16 -33 29 -62 29 -65 3 -17 88 -180
105 -200 74 -90 156 -135 231 -127 62 7 97 22 148 64 60 49 85 89 177 288 60
129 69 150 67 157 -1 5 3 8 8 8 6 0 10 5 10 11 0 11 16 46 91 208 27 57 49
105 49 107 0 2 20 44 44 94 25 49 42 90 38 90 -4 0 -2 4 5 8 6 4 13 16 15 27
1 11 6 22 9 25 6 6 30 56 99 210 26 58 64 141 85 185 21 44 56 118 77 165 50
106 81 174 83 180 0 3 16 37 34 75 18 39 71 151 116 250 46 99 99 215 119 258
20 42 36 82 36 87 0 6 5 10 10 10 6 0 9 3 8 8 -2 9 10 42 23 62 5 8 14 26 20
40 6 14 17 41 26 60 36 82 43 99 71 185 28 84 43 148 57 235 13 82 24 330 15
330 -3 0 -6 21 -6 48 -4 147 -60 352 -144 530 -27 56 -49 105 -49 109 1 3 -4
9 -9 12 -5 3 -26 32 -46 63 -96 151 -288 345 -431 435 -87 55 -172 103 -182
103 -7 0 -13 5 -13 10 0 6 -3 9 -7 8 -5 -1 -26 6 -48 16 -64 29 -77 34 -130
51 -57 19 -151 41 -210 51 -22 3 -44 8 -49 12 -10 5 -371 13 -377 8z m313
-741 c167 -35 304 -108 418 -224 78 -80 98 -105 141 -186 223 -412 67 -917
-348 -1130 -39 -20 -77 -37 -85 -39 -7 -1 -19 -5 -26 -9 -14 -9 -57 -19 -84
-21 -10 0 -18 -3 -18 -6 0 -12 -220 -17 -298 -7 -101 14 -294 100 -372 166
-178 152 -269 312 -306 536 -14 85 -4 268 17 306 5 11 7 19 4 19 -15 0 83 220
111 248 8 7 14 17 14 22 0 17 158 167 213 204 55 37 175 95 212 102 11 3 47
11 80 18 82 19 239 19 327 1z"/>
</g>
</svg>
